<?xml version="1.0" standalone="no"?>
<!DOCTYPE svg PUBLIC "-//W3C//DTD SVG 20010904//EN"
 "http://www.w3.org/TR/2001/REC-SVG-20010904/DTD/svg10.dtd">
<svg version="1.0" xmlns="http://www.w3.org/2000/svg"
 width="1652.000000pt" height="420.000000pt" viewBox="0 0 1652.000000 420.000000"
 preserveAspectRatio="xMidYMid meet">

<g transform="translate(0.000000,420.000000) scale(0.100000,-0.100000)"
fill="white" stroke="none">
<path d="M2113 4059 c-235 -18 -470 -80 -688 -184 -493 -232 -861 -650 -1035
-1175 -54 -161 -60 -222 -28 -270 13 -19 39 -45 57 -57 33 -22 41 -23 278 -23
269 0 293 4 332 59 12 17 33 62 46 100 122 358 428 663 785 780 193 64 441 82
624 47 395 -76 725 -317 902 -658 47 -92 94 -208 94 -233 0 -13 -47 -15 -340
-15 l-340 0 -83 83 c-205 206 -472 254 -727 130 -94 -46 -219 -167 -268 -260
-173 -327 -19 -740 324 -869 242 -91 492 -30 682 165 l72 75 338 -3 c185 -1
339 -5 341 -7 9 -8 -23 -93 -74 -199 -150 -309 -425 -551 -745 -653 -166 -53
-254 -65 -435 -59 -216 7 -359 43 -539 135 -284 145 -494 388 -611 704 -39
105 -70 140 -136 158 -27 8 -120 10 -263 8 -212 -3 -223 -4 -259 -27 -21 -13
-47 -41 -58 -64 -28 -54 -21 -111 32 -270 175 -521 531 -926 1019 -1161 305
-147 579 -204 925 -193 214 6 358 31 552 95 539 178 974 579 1197 1103 115
269 163 537 153 844 -8 258 -58 490 -153 711 -263 617 -820 1053 -1484 1163
-70 11 -319 32 -360 30 -14 -1 -71 -5 -127 -10z m467 -164 c416 -75 736 -245
1020 -542 127 -133 216 -259 300 -428 186 -375 241 -782 160 -1197 -39 -200
-141 -450 -256 -629 -416 -643 -1188 -959 -1933 -793 -160 36 -264 74 -426
155 -175 87 -296 173 -443 313 -228 220 -404 504 -486 790 -41 140 -60 127
186 124 l212 -3 27 -70 c79 -213 175 -363 333 -521 241 -240 511 -367 861
-405 567 -60 1137 260 1398 786 89 179 109 283 66 351 -44 71 -58 74 -459 74
-421 0 -400 5 -524 -123 -112 -115 -206 -157 -352 -157 -233 0 -431 174 -466
409 -29 196 80 395 268 487 70 35 86 39 174 42 165 7 269 -36 379 -154 115
-125 89 -118 496 -122 193 -2 365 0 383 3 74 14 142 115 126 185 -17 71 -82
230 -126 307 -294 513 -857 791 -1433 708 -302 -43 -556 -168 -776 -382 -162
-157 -263 -310 -339 -513 l-36 -95 -212 -3 -212 -2 0 25 c0 13 17 77 39 142
220 669 783 1141 1489 1247 128 20 430 15 562 -9z"/>
<path d="M12287 3226 c-170 -46 -192 -290 -33 -373 40 -21 141 -22 181 -1 34
19 77 62 96 98 18 35 16 138 -3 175 -46 87 -142 127 -241 101z"/>
<path d="M7592 3209 c-23 -12 -51 -34 -62 -49 -46 -64 -50 -171 -10 -237 60
-99 215 -121 304 -42 102 89 80 276 -37 330 -57 26 -140 25 -195 -2z"/>
<path d="M6930 2285 l0 -885 170 0 170 0 0 885 0 885 -170 0 -170 0 0 -885z"/>
<path d="M9560 2285 l0 -885 170 0 170 0 0 284 c0 165 4 287 9 291 12 7 25 -9
265 -320 l192 -250 212 -3 c117 -1 212 0 212 3 0 3 -122 161 -271 351 l-271
345 23 27 c13 14 124 133 247 263 122 130 232 249 243 263 l20 26 -204 0 -204
0 -224 -250 c-123 -137 -230 -250 -236 -250 -10 0 -13 106 -13 495 l0 495
-170 0 -170 0 0 -885z"/>
<path d="M5659 3095 c-319 -60 -549 -263 -628 -556 -66 -241 -42 -549 58 -747
100 -199 277 -334 517 -394 76 -19 115 -22 269 -22 211 0 280 15 434 91 198
98 336 288 366 501 l7 52 -216 0 c-183 0 -216 -2 -216 -15 0 -31 -50 -126 -90
-169 -80 -87 -227 -131 -357 -107 -94 17 -161 52 -222 116 -83 88 -118 185
-128 355 -10 188 37 346 131 444 150 154 433 155 575 1 43 -46 91 -135 91
-167 0 -17 17 -18 215 -18 l215 0 0 23 c0 13 -9 58 -20 101 -62 244 -251 424
-525 501 -84 24 -372 30 -476 10z"/>
<path d="M15919 3046 c-96 -34 -146 -114 -137 -218 13 -133 168 -219 287 -159
136 70 159 240 47 339 -56 49 -128 63 -197 38z m141 -38 c105 -53 129 -178 53
-269 -70 -83 -211 -76 -274 12 -23 33 -36 110 -25 154 4 14 23 43 42 65 56 62
129 75 204 38z"/>
<path d="M15904 2957 c-2 -7 -3 -58 -2 -113 2 -80 6 -99 18 -99 10 0 16 13 18
43 4 58 31 57 69 -3 16 -25 36 -45 46 -45 22 0 22 4 -7 47 l-24 35 25 23 c34
29 36 80 4 107 -28 22 -138 26 -147 5z m130 -39 c18 -29 -4 -53 -53 -56 l-41
-3 0 41 0 41 41 -3 c27 -2 46 -9 53 -20z"/>
<path d="M8640 2709 c-293 -34 -491 -199 -556 -464 -24 -96 -24 -314 -1 -409
25 -99 91 -220 157 -286 62 -62 181 -129 275 -155 93 -25 293 -31 390 -11 223
45 388 190 440 387 29 106 39 99 -148 99 l-162 0 -17 -47 c-24 -68 -69 -117
-136 -150 -49 -24 -69 -28 -142 -28 -65 1 -96 6 -132 22 -66 30 -132 101 -158
171 -61 162 -36 393 54 498 77 90 214 126 340 90 75 -22 146 -89 172 -163 l19
-53 162 0 163 0 0 28 c0 39 -27 127 -58 187 -39 77 -143 175 -232 218 -125 60
-278 83 -430 66z"/>
<path d="M11255 2709 c-199 -27 -356 -124 -418 -257 -17 -38 -21 -66 -22 -147
0 -123 22 -181 96 -250 81 -76 171 -107 429 -150 191 -31 242 -47 276 -88 20
-24 24 -37 20 -61 -14 -71 -71 -111 -182 -127 -151 -21 -288 37 -309 132 l-7
29 -166 -2 -167 -3 1 -65 c2 -157 121 -276 329 -327 101 -25 394 -25 485 0
267 73 403 264 346 485 -44 172 -162 243 -491 296 -196 32 -255 49 -294 82
-24 20 -31 34 -31 62 0 53 19 84 70 112 39 21 58 24 145 25 73 0 113 -5 147
-18 57 -22 98 -67 98 -108 l0 -29 173 2 172 3 -3 50 c-8 169 -142 298 -352
339 -100 20 -259 27 -345 15z"/>
<path d="M13204 2711 c-178 -29 -345 -146 -417 -294 -91 -188 -90 -481 4 -657
93 -175 261 -276 475 -287 180 -10 299 32 407 142 29 30 59 55 65 55 29 0 7
-237 -29 -321 -28 -64 -103 -132 -172 -156 -62 -21 -209 -23 -275 -5 -61 18
-110 65 -123 118 l-11 44 -171 0 -170 0 6 -57 c17 -188 146 -319 364 -370 107
-25 368 -25 468 0 179 45 322 155 390 298 71 151 69 125 73 827 l3 632 -159 0
c-182 0 -164 11 -177 -103 -4 -31 -11 -60 -16 -63 -5 -3 -30 17 -54 44 -56 63
-128 109 -206 133 -71 22 -201 31 -275 20z m338 -305 c81 -33 130 -76 169
-148 32 -60 34 -68 34 -163 0 -89 -3 -106 -28 -157 -33 -68 -90 -121 -166
-156 -47 -22 -71 -26 -146 -26 -122 -1 -183 21 -251 88 -68 69 -89 129 -89
256 0 88 3 101 33 163 57 116 147 165 302 166 67 0 97 -4 142 -23z"/>
<path d="M14842 2710 c-267 -38 -430 -173 -489 -407 -15 -59 -17 -125 -18
-483 l0 -415 173 -3 172 -2 0 393 c0 440 3 461 66 535 56 66 102 85 216 90
159 7 248 -38 299 -151 24 -52 24 -55 27 -459 l3 -408 169 0 170 0 0 404 c0
447 -6 508 -59 623 -60 128 -184 221 -348 264 -90 23 -285 33 -381 19z"/>
<path d="M7520 2040 l0 -640 173 2 172 3 3 638 2 637 -175 0 -175 0 0 -640z"/>
<path d="M12172 2043 l3 -638 173 -3 172 -2 0 640 0 640 -175 0 -175 0 2 -637z"/>
</g>
</svg>
